<?xml version="1.0" encoding="UTF-8" standalone="no"?>
<!-- Created with Inkscape (http://www.inkscape.org/) -->

<svg xmlns:dc="http://purl.org/dc/elements/1.1/" xmlns:cc="http://creativecommons.org/ns#" xmlns:rdf="http://www.w3.org/1999/02/22-rdf-syntax-ns#" xmlns:svg="http://www.w3.org/2000/svg" xmlns="http://www.w3.org/2000/svg" xmlns:sodipodi="http://sodipodi.sourceforge.net/DTD/sodipodi-0.dtd" xmlns:inkscape="http://www.inkscape.org/namespaces/inkscape" width="104.28045mm" height="69.538933mm" viewBox="0 0 369.49765 246.39779" id="svg2" version="1.1" inkscape:version="0.91 r13725" sodipodi:docname="hat-logo.svg">
   <defs id="defs4" />
   <sodipodi:namedview id="base" pagecolor="#ffffff" bordercolor="#666666" borderopacity="1.0" inkscape:pageopacity="0.0" inkscape:pageshadow="2" inkscape:zoom="0.65857318" inkscape:cx="-294.24917" inkscape:cy="82.201145" inkscape:document-units="px" inkscape:current-layer="layer1" showgrid="false" inkscape:window-width="1366" inkscape:window-height="719" inkscape:window-x="0" inkscape:window-y="24" inkscape:window-maximized="1" fit-margin-top="0" fit-margin-left="0" fit-margin-right="0" fit-margin-bottom="0" />
   <metadata id="metadata7">
      <rdf:RDF>
         <cc:Work rdf:about="">
            <dc:format>image/svg+xml</dc:format>
            <dc:type rdf:resource="http://purl.org/dc/dcmitype/StillImage" />
            <dc:title></dc:title>
         </cc:Work>
      </rdf:RDF>
   </metadata>
   <g inkscape:label="Layer 1" inkscape:groupmode="layer" id="layer1" transform="translate(-953.3731,-143.73913)">
      <g id="sugestao_3" transform="matrix(0.41081259,0,0,0.41081259,184.50906,27.352786)" inkscape:label="#g4358" inkscape:export-xdpi="300" inkscape:export-ydpi="300">
         <path inkscape:connector-curvature="0" id="path4331" d="m 1954.4184,882.40998 c -3.9945,-1.64787 -7.417,-6.88276 -7.4365,-11.3745 -0.01,-2.2953 4.9956,-41.67457 11.1233,-87.50949 l 11.1413,-83.33622 -3.8732,-3.13555 c -12.7922,-10.35576 -18.3863,-22.28421 -18.3614,-39.15211 0.013,-8.48365 1.5106,-15.73715 4.4487,-21.5399 3.3465,-6.60928 9.2981,-13.59024 14.8408,-17.40765 l 5.5495,-3.82209 0.6178,-7.63513 c 3.7627,-46.49813 15.3601,-86.45169 33.071,-113.93081 2.5863,-4.01263 4.5353,-7.44135 4.3313,-7.61939 -0.2041,-0.17804 -29.846,-9.48086 -65.871,-20.67294 -74.5478,-23.16015 -72,-22.03091 -72,-31.91199 0,-10.41284 -20.8258,-2.99844 227,-80.8167 121.275,-38.08083 221.4,-69.23787 222.5,-69.23787 1.1,0 101.225,31.15704 222.5,69.23787 202.9626,63.73105 220.7585,69.49153 223.75,72.42728 2.8223,2.76969 3.25,3.8585 3.25,8.27364 0,4.13771 -0.5137,5.65911 -2.7591,8.17222 -2.5683,2.87444 -18.035,7.88915 -223.6576,72.51577 -121.4941,38.18529 -221.8865,69.42779 -223.0941,69.42779 -1.2077,0 -59.9298,-18.25192 -130.4937,-40.55982 l -128.2979,-40.55983 -4.4267,4.30983 c -18.2793,17.7968 -32.4399,57.67374 -35.8046,100.82731 l -0.6641,8.5175 5.081,3.2924 c 8.4322,5.46386 15.6885,16.00805 18.0406,26.21488 1.5181,6.58763 1.2913,19.71184 -0.4567,26.42277 -2.6615,10.21833 -7.666,17.70481 -16.85,25.20667 l -3.8828,3.1717 11.1503,83.3283 c 6.1326,45.83056 11.1424,85.2474 11.1328,87.59298 -0.014,3.44783 -0.6729,4.98014 -3.4398,8 l -3.4223,3.73531 -41.3277,0.20324 c -22.7302,0.11178 -42.2643,-0.18318 -43.4092,-0.65547 z M 2295,782.77894 c -49.4332,-3.25255 -74.4092,-6.79312 -108.7619,-15.41798 -60.7803,-15.25998 -102.7414,-40.84037 -112.2093,-68.4053 -1.5339,-4.46564 -2.0169,-8.36885 -1.9802,-16 0.063,-13.00268 6.3226,-121.29798 7.0539,-122.02932 0.305,-0.30495 51.1442,15.37562 112.976,34.84572 61.8318,19.4701 114.8062,35.89293 117.7207,36.49517 6.5667,1.35689 16.2837,1.40678 23.0768,0.1185 2.8319,-0.53707 55.854,-16.96256 117.8268,-36.5011 63.1272,-19.90251 112.9352,-35.10819 113.2631,-34.57767 1.0507,1.70015 7.3311,120.94899 6.7598,128.35134 -0.8771,11.36332 -5.2426,19.64682 -16.212,30.76197 -10.9612,11.10676 -25.8549,20.62954 -46.5137,29.73999 -34.92,15.3996 -80.7872,26.03264 -132.6587,30.75327 -15.8453,1.44201 -68.2748,2.65935 -80.3413,1.86541 z" style="fill:#000000" />
         <g transform="matrix(0.34480739,0,0,0.34480739,3464.8711,554.82037)" id="g4219-0-2">
            <circle style="fill:#ffffff;fill-opacity:1;stroke:none;stroke-width:10;stroke-miterlimit:4;stroke-dasharray:none;stroke-opacity:0.87843137" id="path3391-7-0" cx="-2548.4131" cy="415.96619" r="485.15729" />
            <path id="path3382-3-6" d="m -2188.2418,416.66414 q 0,-18.8461 -12.5641,-31.4103 l -63.5186,-63.5185 q -12.5641,-12.5642 -31.4103,-12.5642 -18.8461,0 -31.4102,12.5642 l -131.9233,131.9232 0,-350.3992 q 0,-18.148203 -13.2621,-31.410303 -13.2621,-13.2621 -31.4103,-13.2621 l -89.3448,0 q -18.1482,0 -31.4103,13.2621 -13.2621,13.2621 -13.2621,31.410303 l 0,350.3992 -131.9233,-131.9232 q -13.2621,-13.2622 -31.4102,-13.2622 -18.1482,0 -31.4103,13.2622 l -63.5186,63.5185 q -12.5641,12.5642 -12.5641,31.4103 0,18.8462 12.5641,31.4103 l 252.6783,252.6783 63.5186,63.5186 q 12.5641,12.5641 31.4103,12.5641 18.8462,0 31.4103,-12.5641 l 63.5186,-63.5186 252.6783,-252.6783 q 12.5641,-12.5641 12.5641,-31.4103 z m 175.8977,-0.698 q 0,145.8834 -71.8947,269.0815 -71.8947,123.1981 -195.0928,195.0928 -123.1981,71.8947 -269.0815,71.8947 -145.8834,0 -269.0815,-71.8947 -123.1981,-71.8947 -195.0928,-195.0928 -71.8947,-123.1981 -71.8947,-269.0815 0,-145.8833 71.8947,-269.0814 71.8947,-123.198103 195.0928,-195.092803 123.1981,-71.894697 269.0815,-71.894697 145.8834,0 269.0815,71.894697 123.1981,71.8947 195.0928,195.092803 71.8947,123.1981 71.8947,269.0814 z" inkscape:connector-curvature="0" style="fill:#006680" />
         </g>
      </g>
   </g>
</svg>